Coordinates
version=1
nRows=29
nColumns=24
inDegrees=yes

Units are S.I. units (second, meters, Newtons, ...)
Angles are in degrees.

endheader
time	pelvis_tilt	pelvis_list	pelvis_rotation	pelvis_tx	pelvis_ty	pelvis_tz	hip_flexion_r	hip_adduction_r	hip_rotation_r	knee_angle_r	ankle_angle_r	subtalar_angle_r	mtp_angle_r	hip_flexion_l	hip_adduction_l	hip_rotation_l	knee_angle_l	ankle_angle_l	subtalar_angle_l	mtp_angle_l	lumbar_extension	lumbar_bending	lumbar_rotation
      0.54200000	     -1.61476914	      5.26426212	      2.35287010	     -0.83148485	      0.97782572	      0.31045690	     27.05111298	     -4.26955279	     -6.39351730	     -6.81295689	      7.41373141	     -2.65364269	      0.89036352	    -14.21433603	      9.09851284	      3.96992769	     -7.09799107	     10.21163165	     -5.42131439	      0.09266765	     -0.67430794	     -3.29521006	     -0.81651304
      0.54616667	     -1.68418352	      5.21965320	      2.33111050	     -0.82554578	      0.97720205	      0.31079842	     27.14019420	     -4.15261030	     -6.35088679	     -7.12822819	      7.21476964	     -2.66711276	      1.29940526	    -14.22350826	      9.01067513	      3.75573741	     -7.63360830	     10.31408189	     -5.00141876	      0.04925410	     -0.53248367	     -3.23878357	     -0.80927289
      0.55033333	     -1.67530263	      5.16517699	      2.30727695	     -0.81953254	      0.97674108	      0.31112212	     27.11043915	     -4.02379936	     -6.25131506	     -7.42795873	      6.89935470	     -3.00367920	      6.73355961	    -14.34164192	      8.91572412	      3.64077374	     -8.11650962	     10.30206759	     -4.81656657	     -0.19020461	     -0.47787827	     -3.15388499	     -0.79510895
      0.55450000	     -1.72897583	      5.14164914	      2.26340678	     -0.81352652	      0.97617768	      0.31146718	     27.20775374	     -3.92662720	     -6.15831650	     -7.89718652	      6.70508911	     -2.95616719	      6.75486030	    -14.36953616	      8.86249634	      3.50528164	     -8.64247558	     10.24893828	     -4.60872628	     -0.16656663	     -0.35162246	     -3.12165332	     -0.87015174
      0.55866667	     -1.75357321	      5.09072855	      2.23735003	     -0.80748010	      0.97570774	      0.31182434	     27.23684172	     -3.80149111	     -6.02140581	     -8.34534863	      6.45057445	     -3.05744652	      6.79929761	    -14.38978928	      8.76868185	      3.33556918	     -9.24714983	     10.23685076	     -4.33839454	     -0.10354679	     -0.25622975	     -3.05276411	     -0.89502731
      0.56283333	     -1.81407496	      5.03987683	      2.19237620	     -0.80140685	      0.97521353	      0.31221157	     27.30538936	     -3.66361397	     -5.82059339	     -8.82497912	      6.13518095	     -3.25647684	      6.86068858	    -14.34960357	      8.68285916	      3.15847894	     -9.88398384	     10.17929615	     -4.08937683	     -0.00275764	     -0.11393183	     -2.98131848	     -0.91008938
      0.56700000	     -1.85345809	      4.98161452	      2.13680205	     -0.79529154	      0.97477222	      0.31262291	     27.34240167	     -3.51159406	     -5.58247252	     -9.32014326	      5.75906456	     -3.49731817	      6.93962666	    -14.32262856	      8.58765997	      2.96561524	    -10.53623069	     10.07675009	     -3.84073680	      0.14471205	      0.00791139	     -2.90006627	     -0.91317847
      0.57116667	     -1.91083781	      4.92108185	      2.08040797	     -0.78915563	      0.97434384	      0.31304525	     27.39295727	     -3.35419338	     -5.31133537	     -9.83286235	      5.35425805	     -3.77505727	      7.02799657	    -14.24761986	      8.49102893	      2.78118910	    -11.24054155	      9.93463687	     -3.61498375	      0.32616139	      0.15443149	     -2.82098874	     -0.91843991
      0.57533333	     -1.94656029	      4.84177103	      1.99845631	     -0.78297536	      0.97397230	      0.31353108	     27.40998686	     -3.15767588	     -4.96758829	    -10.35113987	      4.95551429	     -4.24025119	      7.21903173	    -14.17800673	      8.37067302	      2.53049287	    -11.96940928	      9.74058076	     -3.30416574	      0.74321110	      0.27530012	     -2.71515627	     -0.91305828
      0.57950000	     -2.02306170	      4.77207133	      1.93367299	     -0.77679661	      0.97357594	      0.31396421	     27.48261527	     -2.98793305	     -4.68201028	    -10.91107279	      4.48597265	     -4.54870966	      7.35736140	    -14.03077422	      8.26821852	      2.35280304	    -12.76259485	      9.56978034	     -3.12865983	      1.09790410	      0.45219076	     -2.61652037	     -0.90236884
      0.58366667	     -2.08064548	      4.70388194	      1.87300164	     -0.77059519	      0.97326466	      0.31440821	     27.50024125	     -2.81699136	     -4.35841092	    -11.41398793	      3.96717504	     -4.83512682	      7.45588301	    -13.87240458	      8.16143463	      2.17152482	    -13.60555413	      9.27432966	     -2.96478009	      1.38800730	      0.60512474	     -2.53259909	     -0.89270360
      0.58783333	     -2.11373402	      4.62247147	      1.77423292	     -0.76435542	      0.97300511	      0.31491381	     27.50625997	     -2.61277012	     -3.98838450	    -11.96572120	      3.47316669	     -5.40032845	      8.80515974	    -13.73919501	      8.04318431	      1.95141335	    -14.42464477	      8.84477341	     -2.86245253	      5.70809664	      0.72504381	     -2.42220815	     -0.86503193
      0.59200000	     -2.16661199	      4.53119981	      1.68044717	     -0.75806282	      0.97274889	      0.31537375	     27.54207106	     -2.41929067	     -3.73467349	    -12.54882663	      2.98779020	     -5.51402040	      8.80404228	    -13.55647094	      7.91839258	      1.74771257	    -15.30883637	      8.43317408	     -2.72328976	      5.74289409	      0.88864334	     -2.28267942	     -0.86979477
      0.59616667	     -2.26213514	      4.43889932	      1.62321262	     -0.75186833	      0.97248812	      0.31587916	     27.58154881	     -2.21429514	     -3.34731260	    -13.05716466	      2.53070796	     -6.02527757	      8.80912560	    -13.22311977	      7.76584092	      1.47747770	    -16.38291062	      8.11399170	     -2.42270605	      5.88747615	      1.08357398	     -2.18368345	     -0.83724970
      0.60033333	     -2.29377706	      4.30494639	      1.52779322	     -0.74559210	      0.97235568	      0.31642431	     27.55130542	     -1.95262397	     -2.96632485	    -13.58654084	      2.12846677	     -6.66014114	      8.81939099	    -12.97033890	      7.57250429	      1.19682746	    -17.41420092	      7.65755708	     -2.16052380	      6.26104192	      1.20923873	     -2.00672176	     -0.81023883
      0.60450000	     -2.36531902	      4.20253463	      1.44603304	     -0.73936278	      0.97217836	      0.31692054	     27.58851094	     -1.74507670	     -2.66496993	    -14.16000674	      1.67429666	     -7.02291503	      8.82026397	    -12.62803998	      7.41736351	      0.96888135	    -18.52936039	      7.19731478	     -1.99501190	      6.58507159	      1.37799021	     -1.87032232	     -0.79008376
      0.60866667	     -2.42493716	      4.07273404	      1.36418586	     -0.73311480	      0.97208039	      0.31744950	     27.58889931	     -1.50262315	     -2.33265130	    -14.70372331	      1.29461569	     -7.53028592	      8.81375318	    -12.26495840	      7.22111161	      0.71358425	    -19.68598620	      6.63747320	     -1.78584811	      7.06190125	      1.53301913	     -1.70739470	     -0.76827514
      0.61283333	     -2.45355553	      3.92647169	      1.28329554	     -0.72683729	      0.97208017	      0.31798879	     27.52985042	     -1.24599335	     -2.01803613	    -15.20362992	      0.95830561	     -7.93513956	      8.66863032	    -11.91571127	      6.99990892	      0.46153111	    -20.85130357	      5.86195054	     -1.73139848	     12.14841806	      1.65921050	     -1.52339897	     -0.73395527
      0.61700000	     -2.50159803	      3.80556752	      1.21536876	     -0.72060865	      0.97206267	      0.31848592	     27.51874585	     -1.03730291	     -1.78503845	    -15.76148783	      0.65918820	     -8.14910337	      8.65900572	    -11.49602289	      6.80121039	      0.22739537	    -22.10415970	      5.17944276	     -1.52216041	     12.20344835	      1.80246235	     -1.37304294	     -0.74077375
      0.62116667	     -2.54112765	      3.64112664	      1.14304931	     -0.71440563	      0.97207823	      0.31903694	     27.49230760	     -0.77273077	     -1.53281716	    -16.32130381	      0.41482336	     -8.64257771	      8.63085946	    -11.03709510	      6.54364858	     -0.03661594	    -23.43861759	      4.50219847	     -1.30320380	     12.37491784	      1.92372347	     -1.17301025	     -0.72731701
      0.62533333	     -2.57238859	      3.47584490	      1.07720480	     -0.70821084	      0.97215367	      0.31958393	     27.44039167	     -0.51463548	     -1.30362166	    -16.85247513	      0.21255390	     -9.01331599	      8.59093871	    -10.55697919	      6.27888373	     -0.28319532	    -24.80162043	      3.71876599	     -1.11871793	     12.61452481	      2.03893223	     -0.97351498	     -0.71567396
      0.62950000	     -2.58190719	      3.28220891	      1.04209840	     -0.70202646	      0.97231942	      0.32011692	     27.33342826	     -0.23806316	     -1.10119484	    -17.33554788	      0.08064349	     -9.48643122	      8.50015990	    -10.06385049	      5.96780853	     -0.49800504	    -26.21185063	      2.84383704	     -0.91293605	     13.14040052	      2.12552985	     -0.74579104	     -0.69953238
      0.63366667	     -2.54596839	      3.06293514	      0.94117525	     -0.69586466	      0.97254136	      0.32076250	     27.16903290	      0.10174139	     -0.81078501	    -17.79226176	     -0.05050156	     -9.97966459	      8.19919533	     -9.59769073	      5.62526052	     -0.81009823	    -27.64179675	      1.93677095	     -0.77135779	     14.77972016	      2.15482639	     -0.47917571	     -0.70597666
      0.63783333	     -2.59646368	      2.91485811	      0.94080839	     -0.68978937	      0.97265107	      0.32118827	     27.16062860	      0.27599976	     -0.83815084	    -18.38864492	     -0.04647500	     -9.95520240	      8.10561398	     -8.98563506	      5.36420540	     -0.92591887	    -29.14900521	      0.97624131	     -0.63760373	     15.25936066	      2.28458751	     -0.31173224	     -0.67931086
      0.64200000	     -2.59921803	      2.71297760	      0.86002267	     -0.68372624	      0.97283840	      0.32178045	     27.06015127	      0.56447084	     -0.69533845	    -18.89154449	     -0.07555933	    -10.12232944	      8.04874659	     -8.39972355	      5.03339701	     -1.18519182	    -30.67983971	     -0.01374705	     -0.53983729	     15.53019143	      2.35070670	     -0.06941701	     -0.67529627
      0.64616667	     -2.53793199	      2.50686077	      0.82257815	     -0.67766494	      0.97317756	      0.32227464	     26.86799551	      0.82173238	     -0.66884996	    -19.36519190	     -0.01720907	    -10.15247503	      8.03006811	     -7.87859970	      4.70440822	     -1.32209890	    -32.18639306	     -1.12436813	     -0.51133616	     15.61939433	      2.33165502	      0.18905573	     -0.65048138
      0.65033333	     -2.57475169	      2.27870990	      0.80754006	     -0.67173165	      0.97338702	      0.32285981	     26.75436719	      1.12200832	     -0.55800297	    -19.77840204	      0.02563977	    -10.60413137	      7.89702250	     -7.16747984	      4.31302861	     -1.51893869	    -33.82799025	     -2.15964307	     -0.31893534	     16.13716778	      2.43721409	      0.42378855	     -0.64372054
      0.65450000	     -2.56329348	      2.05922412	      0.73513994	     -0.66581862	      0.97363348	      0.32344599	     26.61194206	      1.41376725	     -0.50170595	    -20.22851266	      0.14648662	    -10.61396747	      7.81941946	     -6.50928822	      3.94788916	     -1.73803602	    -35.44087976	     -3.26729022	     -0.30140810	     16.42941018	      2.47069787	      0.68691940	     -0.62066297
      0.65866667	     -2.51490504	      1.83003098	      0.70995098	     -0.65992382	      0.97400024	      0.32398304	     26.38249458	      1.69531592	     -0.49701449	    -20.59350737	      0.30160074	    -10.61890363	      7.78030182	     -5.87400357	      3.56784711	     -1.87089416	    -37.04452429	     -4.46978804	     -0.30060980	     16.56407901	      2.46159041	      0.93698444	     -0.58518216
